<svg width="336" height="519" viewBox="0 0 336 519" fill="none" xmlns="http://www.w3.org/2000/svg">
<g clip-path="url(#clip0_2407_4411)">
<rect width="336" height="519" fill="#1A1A1B"/>
<path opacity="0.04" d="M31.0284 -10.0171C42.4284 -10.0171 51.6164 -6.38073 58.5925 0.891928C65.5687 8.16459 69.0567 18.3125 69.0567 31.3356C69.0567 39.7922 67.3552 47.234 63.9522 53.661C60.7194 60.088 56.2104 65.0774 50.4254 68.6291C44.8104 72.1809 38.3448 73.9568 31.0284 73.9568C19.6284 73.9568 10.4403 70.3205 3.46418 63.0478C-3.51194 55.7751 -7 45.6272 -7 32.6041C-7 24.1475 -5.38358 16.7057 -2.15075 10.2787C1.25224 3.85173 5.76119 -1.13765 11.3761 -4.68941C17.1612 -8.24117 23.7119 -10.0171 31.0284 -10.0171ZM125.461 107.191C118.825 107.191 113.891 110.405 110.658 116.832C107.425 123.259 105.809 132.645 105.809 144.992C105.809 157.339 107.681 166.641 111.424 172.899C115.167 178.988 120.187 182.032 126.482 182.032C133.118 182.032 137.967 178.818 141.03 172.391C144.263 165.964 145.879 156.662 145.879 144.485C145.879 131.969 144.093 122.667 140.519 116.578C136.946 110.32 131.927 107.191 125.461 107.191ZM125.972 102.625C137.372 102.625 146.56 106.261 153.536 113.534C160.512 120.806 164 130.954 164 143.977C164 152.434 162.299 159.876 158.896 166.303C155.663 172.73 151.154 177.719 145.369 181.271C139.754 184.823 133.288 186.598 125.972 186.598C114.572 186.598 105.384 182.962 98.4075 175.689C91.4313 168.417 87.9433 158.269 87.9433 145.246C87.9433 136.789 89.5597 129.347 92.7925 122.92C96.1955 116.493 100.704 111.504 106.319 107.952C112.104 104.4 118.655 102.625 125.972 102.625ZM30.5179 -5.4505C23.8821 -5.4505 18.9478 -2.237 15.7149 4.19C12.4821 10.617 10.8657 20.0038 10.8657 32.3504C10.8657 44.697 12.7373 53.9992 16.4806 60.2571C20.2239 66.3458 25.2433 69.3902 31.5388 69.3902C38.1746 69.3902 43.0239 66.1767 46.0866 59.7497C49.3194 53.3227 50.9358 44.0205 50.9358 31.843C50.9358 19.3273 49.1493 10.025 45.5761 3.9363C42.003 -2.32157 36.9836 -5.4505 30.5179 -5.4505ZM152.515 -26L157.364 -22.7019L8.05821 197L3.20895 193.702L152.515 -26Z" fill="white"/>
<path opacity="0.2" d="M267 221C294 233.5 305 270 292.242 306.799" stroke="white" stroke-dasharray="8 8"/>
<path opacity="0.2" d="M286.047 298.567C288.982 303.736 289.756 306.942 289.832 313.16C293.73 310.564 297.39 307.417 302.962 308.302" stroke="white"/>
</g>
<defs>
<clipPath id="clip0_2407_4411">
<rect width="336" height="519" fill="white"/>
</clipPath>
</defs>
</svg>
