<svg width="30" height="30" viewBox="0 0 30 30" fill="none" xmlns="http://www.w3.org/2000/svg">
<g clip-path="url(#clip0_250_655)">
<path fill-rule="evenodd" clip-rule="evenodd" d="M9.62048 0.886796C9.33298 0.982763 9.20457 1.26205 9.20457 1.79106C9.20457 4.01417 7.54343 5.86265 5.35742 6.07202C3.98274 6.20367 3.87075 7.05254 5.20831 7.20308C7.57047 7.46898 9.20457 9.24442 9.20457 11.545C9.20457 12.1816 9.34609 12.431 9.7073 12.431C10.1052 12.431 10.2443 12.2547 10.2443 11.75C10.2443 9.32026 12.1362 7.24364 14.3498 7.24364C14.8839 7.24364 15.1573 7.05389 15.1573 6.68309C15.1573 6.26571 15.0084 6.17556 14.1721 6.08644C13.2429 5.98736 12.1388 5.47235 11.5214 4.85018C10.774 4.09707 10.5335 3.48153 10.2722 1.65308C10.1894 1.07375 9.93979 0.780247 9.62048 0.886796ZM10.1303 4.82932C10.5283 5.44382 11.308 6.15595 11.9393 6.48172L12.248 6.64097L11.6352 7.02754C10.9732 7.44522 10.2137 8.2336 9.95269 8.77392C9.74214 9.20998 9.73413 9.20697 9.32623 8.53437C8.95638 7.92475 8.00613 7.06385 7.44861 6.83342L7.10943 6.69326L7.66311 6.37672C8.36506 5.97543 9.19948 5.13268 9.45537 4.56653C9.56402 4.32594 9.6681 4.14417 9.68651 4.16253C9.70491 4.1809 9.90465 4.48094 10.1303 4.82932ZM20.4324 7.40123C20.3466 7.50446 20.2623 8.01688 20.2142 8.72931C19.9141 13.1647 17.1119 16.1167 12.8946 16.4402C11.7093 16.5311 11.2933 16.9013 11.804 17.4109C11.9487 17.5554 12.1506 17.6184 12.4684 17.6184C14.3653 17.6184 16.6165 18.5653 17.9989 19.9446C19.4391 21.3818 20.0823 22.9603 20.2847 25.5552C20.3755 26.718 20.4483 26.8742 20.881 26.8321C21.282 26.7932 21.3148 26.6984 21.4665 25.1365C21.8851 20.825 24.595 18.0456 28.7523 17.664C29.7298 17.5742 30 17.4506 30 17.093C30 16.7117 29.6619 16.4772 29.1121 16.4772C24.8642 16.4772 21.3801 12.8418 21.3683 8.39722C21.3658 7.45145 20.8486 6.90096 20.4324 7.40123ZM21.2549 12.5348C22.1155 14.3975 23.6562 15.8553 25.6571 16.7003C26.0728 16.8757 26.4256 17.0307 26.4413 17.0447C26.457 17.0586 26.1996 17.1689 25.8694 17.2897C23.7285 18.0729 21.6581 20.1204 20.9961 22.1094L20.8265 22.6188L20.597 22.0553C19.9819 20.5453 18.9908 19.2529 17.7949 18.4014C17.1242 17.9239 15.5187 17.1028 15.2408 17.0953C15.152 17.0929 15.3495 16.9789 15.6799 16.842C18.0707 15.8511 20.0618 13.8664 20.6655 11.8722C20.7832 11.4831 20.7911 11.4776 20.8894 11.7165C20.9455 11.8527 21.11 12.221 21.2549 12.5348ZM5.04913 17.8191C4.98996 17.9295 4.94109 18.198 4.94068 18.4156C4.936 20.7227 3.30522 22.5482 1.02719 22.7966C-0.419032 22.9543 -0.308504 23.8542 1.17213 23.9772C3.24533 24.1493 4.69124 25.7256 4.90345 28.0451C4.98747 28.9627 5.07543 29.1345 5.4614 29.1345C5.84725 29.1345 5.93522 28.9629 6.01975 28.0451C6.23103 25.7524 7.6915 24.2113 9.86337 23.9893C10.6731 23.9065 10.8942 23.7772 10.8942 23.3865C10.8942 22.9793 10.7747 22.9045 9.96132 22.8026C7.58347 22.5047 6.30496 21.1223 6.03015 18.5522C5.99054 18.1813 5.91079 17.8195 5.85297 17.7481C5.68734 17.5438 5.17244 17.5893 5.04913 17.8191ZM5.74806 21.4312C6.18809 22.1053 6.86997 22.7723 7.46982 23.1155L7.97067 23.4021L7.45963 23.7158C6.68261 24.1928 6.22646 24.6338 5.80504 25.315L5.42209 25.934L5.23504 25.5703C4.95056 25.017 3.96787 24.0109 3.4381 23.7305C2.86529 23.4273 2.86446 23.4197 3.37156 23.1353C3.99532 22.7855 4.75238 22.0554 5.09748 21.4708C5.26904 21.1802 5.41325 20.9416 5.41793 20.9404C5.42251 20.9393 5.57109 21.1601 5.74806 21.4312Z" fill="#6CBEBE"/>
<path d="M21.2549 12.5348C22.1155 14.3975 23.6562 15.8553 25.6571 16.7003C26.0728 16.8757 26.4256 17.0307 26.4413 17.0447C26.457 17.0586 26.1996 17.1689 25.8694 17.2897C23.7285 18.0729 21.6581 20.1204 20.9961 22.1094L20.8265 22.6188L20.597 22.0553C19.9819 20.5453 18.9908 19.2529 17.7949 18.4014C17.1242 17.9239 15.5187 17.1028 15.2408 17.0953C15.152 17.0929 15.3495 16.9789 15.6799 16.842C18.0707 15.8511 20.0618 13.8664 20.6655 11.8722C20.7832 11.4831 20.7911 11.4776 20.8894 11.7165C20.9455 11.8527 21.11 12.221 21.2549 12.5348Z" fill="#6CBEBE"/>
<path d="M10.1303 4.82932C10.5283 5.44382 11.308 6.15595 11.9393 6.48172L12.248 6.64097L11.6352 7.02754C10.9732 7.44522 10.2137 8.2336 9.95269 8.77392C9.74214 9.20998 9.73413 9.20697 9.32623 8.53437C8.95638 7.92475 8.00613 7.06385 7.44861 6.83342L7.10943 6.69326L7.66311 6.37672C8.36506 5.97543 9.19948 5.13268 9.45537 4.56653C9.56402 4.32594 9.6681 4.14417 9.68651 4.16253C9.70491 4.1809 9.90465 4.48094 10.1303 4.82932Z" fill="#6CBEBE"/>
<path d="M5.74806 21.4312C6.18809 22.1053 6.86997 22.7723 7.46982 23.1155L7.97067 23.4021L7.45963 23.7158C6.68261 24.1928 6.22646 24.6338 5.80504 25.315L5.42209 25.934L5.23504 25.5703C4.95056 25.017 3.96787 24.0109 3.4381 23.7305C2.86529 23.4273 2.86446 23.4197 3.37156 23.1353C3.99532 22.7855 4.75238 22.0554 5.09748 21.4708C5.26904 21.1802 5.41325 20.9416 5.41793 20.9404C5.42251 20.9393 5.57109 21.1601 5.74806 21.4312Z" fill="#6CBEBE"/>
</g>
<defs>
<clipPath id="clip0_250_655">
<rect width="30" height="30" fill="white"/>
</clipPath>
</defs>
</svg>
