<svg width="1268" height="734" viewBox="0 0 1268 734" fill="none" xmlns="http://www.w3.org/2000/svg">
<rect width="1267" height="744" fill="#BE6CAA"/>
<path opacity="0.2" d="M113.5 119.388C263.448 18.5624 529.233 -18.9777 586.923 48.0135C659.036 131.752 85.2332 202.317 188.251 413.441C291.269 624.564 406.392 662.426 586.923 355.576C663.958 224.639 1228.08 132.097 927.253 328.531C362.185 697.508 -53.8933 864.727 468.912 729.414C1004.44 590.808 1209.24 549.296 1046.37 443.002C950.099 380.174 387.07 577.161 635.457 706.068C883.845 834.975 1484.11 679.596 1604.87 637.98C1725.63 596.364 1734.32 448.662 1231.73 607.79C702.286 775.418 230.826 359.947 555.332 224.95C879.838 89.9523 1208.63 124.747 1149.08 -47.5887C1118.99 -134.645 922.544 30.0383 846.425 28.5158C770.306 26.9932 723.595 -179.535 660.067 6.21327C596.539 191.962 917.53 152.421 982.557 -62.6839" stroke="white"/>
</svg>
