<svg width="1160" height="734" viewBox="0 0 1160 734" fill="none" xmlns="http://www.w3.org/2000/svg">
<rect width="1160" height="734" fill="#F5F5F5"/>
<rect width="1400" height="734" transform="translate(-120)" fill="white"/>
<rect x="-5" width="1170" height="734" fill="#6C81BE"/>
<path opacity="0.2" d="M-5 119.388C144.948 18.5624 410.733 -18.9777 468.423 48.0135C540.536 131.752 -33.2668 202.317 69.751 413.441C172.769 624.564 287.892 662.426 468.423 355.576C545.458 224.639 1109.58 132.097 808.753 328.531C243.685 697.508 -172.393 864.727 350.412 729.414C885.935 590.808 1090.74 549.296 927.869 443.002C831.599 380.174 268.57 577.161 516.957 706.068C765.345 834.975 1365.61 679.596 1486.37 637.98C1607.13 596.364 1615.82 448.662 1113.23 607.79C583.786 775.418 112.326 359.947 436.832 224.95C761.338 89.9523 1090.13 124.747 1030.58 -47.5887C1000.49 -134.645 804.044 30.0383 727.925 28.5158C651.806 26.9932 605.095 -179.535 541.567 6.21327C478.039 191.962 799.03 152.421 864.057 -62.6839" stroke="white"/>
</svg>
