<svg width="24" height="24" viewBox="0 0 24 24" fill="none" xmlns="http://www.w3.org/2000/svg">
<path d="M21 11.5C21.0034 12.8199 20.6951 14.1219 20.1 15.3C19.3944 16.7118 18.3098 17.8992 16.9675 18.7293C15.6251 19.5594 14.0782 19.9994 12.5 20C11.1801 20.0035 9.87812 19.6951 8.7 19.1L3 21L4.9 15.3C4.30493 14.1219 3.99656 12.8199 4 11.5C4.00061 9.92179 4.44061 8.37488 5.27072 7.03258C6.10083 5.69028 7.28826 4.6056 8.7 3.90003C9.87812 3.30496 11.1801 2.99659 12.5 3.00003H13C15.0843 3.11502 17.053 3.99479 18.5291 5.47089C20.0052 6.94699 20.885 8.91568 21 11V11.5Z" stroke="#6CBEBE" stroke-width="2" stroke-linecap="round" stroke-linejoin="round"/>
<path d="M11.6197 13.2772V13.1219C11.6224 12.5891 11.6638 12.1643 11.744 11.8477C11.8269 11.531 11.9471 11.2753 12.1048 11.0804C12.2625 10.8855 12.4522 10.7089 12.6741 10.5506C12.8398 10.4288 12.9881 10.3025 13.1191 10.1716C13.25 10.0406 13.3542 9.89601 13.4318 9.73768C13.5093 9.57631 13.548 9.39667 13.548 9.19877C13.548 8.98868 13.5039 8.80447 13.4157 8.64615C13.3275 8.48782 13.2086 8.36603 13.0589 8.28078C12.9119 8.19553 12.7489 8.1529 12.5698 8.1529C12.3961 8.1529 12.2318 8.19705 12.0767 8.28535C11.9217 8.3706 11.7948 8.49848 11.6959 8.66898C11.597 8.83644 11.5436 9.04501 11.5355 9.29467H9.8999C9.91327 8.68573 10.0416 8.18335 10.2848 7.78754C10.528 7.38868 10.85 7.09182 11.2509 6.89696C11.6518 6.69905 12.0941 6.6001 12.5779 6.6001C13.1097 6.6001 13.5801 6.70057 13.989 6.90152C14.3979 7.09943 14.7186 7.38716 14.9511 7.7647C15.1836 8.14225 15.2999 8.59743 15.2999 9.13026C15.2999 9.48649 15.2478 9.80314 15.1436 10.0802C15.042 10.3542 14.899 10.5978 14.7146 10.8109C14.5302 11.021 14.3124 11.2113 14.0611 11.3818C13.85 11.5249 13.6763 11.6741 13.54 11.8294C13.4064 11.9847 13.3061 12.1643 13.2393 12.3683C13.1752 12.5723 13.1418 12.8235 13.1391 13.1219V13.2772H11.6197ZM12.4135 16.2001C12.1462 16.2001 11.9177 16.0935 11.728 15.8804C11.5409 15.6642 11.4487 15.4054 11.4513 15.104C11.4487 14.8056 11.5409 14.5499 11.728 14.3367C11.9177 14.1236 12.1462 14.017 12.4135 14.017C12.6674 14.017 12.8905 14.1236 13.083 14.3367C13.2754 14.5499 13.373 14.8056 13.3756 15.104C13.373 15.3049 13.3262 15.4892 13.2353 15.6566C13.1471 15.821 13.0309 15.9535 12.8865 16.054C12.7422 16.1514 12.5845 16.2001 12.4135 16.2001Z" fill="#6CBEBE"/>
</svg>
