<svg width="1400" height="883" viewBox="0 0 1400 883" fill="none" xmlns="http://www.w3.org/2000/svg">
<g clip-path="url(#clip0_2407_2682)">
<rect width="1400" height="883" fill="#E3E9EE"/>
<path opacity="0.3" d="M143.654 383H184.214C201.547 383 214.98 387.507 224.514 396.52C234.22 405.533 239.074 418.88 239.074 436.56C239.074 449.733 236.474 460.567 231.274 469.06C226.074 477.38 219.314 483.447 210.994 487.26C202.847 490.9 194.094 492.72 184.734 492.72H163.414V552H143.654L143.654 383ZM181.874 481.8C206.14 481.8 218.274 466.98 218.274 437.34C218.274 422.78 215.154 412.033 208.914 405.1C202.674 397.993 193.747 394.44 182.134 394.44H163.414L163.414 481.8H181.874ZM264.838 552V383L355.838 383V395.48L284.598 395.48V460.48L349.858 460.48V472.44L284.598 472.44V539.52H361.558V552H264.838ZM421.055 554.6C408.575 554.6 398.522 552.693 390.895 548.88C383.269 544.893 377.809 540.733 374.515 536.4C371.222 531.893 369.575 529.12 369.575 528.08L376.855 518.98C376.855 519.673 378.329 522.013 381.275 526C384.395 529.813 389.075 533.453 395.315 536.92C401.555 540.213 409.442 541.86 418.975 541.86C430.762 541.86 439.862 538.653 446.275 532.24C452.862 525.827 456.155 516.64 456.155 504.68C456.155 482.32 445.235 471.14 423.395 471.14L399.215 472.18V459.7L424.695 460.74C428.855 460.567 433.015 459.093 437.175 456.32C441.335 453.547 444.802 449.473 447.575 444.1C450.349 438.727 451.735 432.313 451.735 424.86C451.735 403.54 441.162 392.88 420.015 392.88C414.122 392.88 408.489 393.833 403.115 395.74C397.742 397.473 393.149 399.467 389.335 401.72C385.695 403.8 383.875 404.927 383.875 405.1L381.535 393.92C381.535 393.747 383.615 392.533 387.775 390.28C391.935 387.853 397.135 385.687 403.375 383.78C409.615 381.7 416.202 380.66 423.135 380.66C439.082 380.66 451.215 384.473 459.535 392.1C467.855 399.727 472.015 410.127 472.015 423.3C472.015 433.18 469.329 441.587 463.955 448.52C458.755 455.453 452.342 460.827 444.715 464.64C455.115 466.893 463.175 471.313 468.895 477.9C474.789 484.487 477.735 493.587 477.735 505.2C477.735 514.907 475.395 523.487 470.715 530.94C466.209 538.393 459.622 544.2 450.955 548.36C442.462 552.52 432.495 554.6 421.055 554.6ZM524.639 554.34C520.479 554.34 516.752 553.907 513.459 553.04C510.339 552.347 507.912 551.653 506.179 550.96C504.446 550.093 503.406 549.487 503.059 549.14L505.919 535.36C506.266 535.707 507.219 536.313 508.779 537.18C510.339 537.873 512.506 538.567 515.279 539.26C518.052 539.953 521.172 540.3 524.639 540.3C531.226 540.3 537.119 538.48 542.319 534.84C547.519 531.027 552.632 523.833 557.659 513.26L490.059 383H512.939L567.539 492.46L607.319 383H622.919L574.559 506.76C567.626 524.267 560.172 536.573 552.199 543.68C544.226 550.787 535.039 554.34 524.639 554.34ZM638.606 553.82C635.486 553.82 632.973 553.56 631.066 553.04C629.333 552.693 628.293 552.433 627.946 552.26L628.726 538.22C629.073 538.393 629.853 538.653 631.066 539C632.28 539.173 633.666 539.26 635.226 539.26C659.666 539.26 671.886 487.173 671.886 383H754.306V552H734.806V395.48H685.406C685.233 447.133 681.073 486.48 672.926 513.52C664.78 540.387 653.34 553.82 638.606 553.82ZM795.533 383H815.293V451.12H835.313C855.073 451.12 870.326 455.193 881.073 463.34C891.993 471.487 897.453 483.62 897.453 499.74C897.453 516.38 892.253 529.293 881.853 538.48C871.626 547.493 856.459 552 836.353 552H795.533V383ZM835.833 540.56C849.873 540.56 860.273 537.267 867.033 530.68C873.966 523.92 877.433 513.78 877.433 500.26C877.433 487.087 873.793 477.467 866.513 471.4C859.406 465.16 849.006 462.04 835.313 462.04H815.293V540.56H835.833ZM951.845 552V395.48H903.745V383L1019.97 383V395.48L971.605 395.48V552H951.845ZM1019.95 552L1076.89 383H1100.03L1155.93 552H1135.39L1117.71 500L1051.41 500L1033.73 552H1019.95ZM1055.05 489.34H1114.33L1084.95 398.08L1055.05 489.34ZM1203.86 552V395.48H1155.76V383H1271.98V395.48H1223.62V552H1203.86Z" fill="white"/>
<path opacity="0.8" d="M-95 129.958C23.9974 49.797 234.922 19.9506 280.704 73.2121C337.932 139.789 -117.432 195.891 -35.6783 363.746C46.0756 531.601 137.436 561.702 280.704 317.741C341.838 213.639 789.52 140.063 550.786 296.238C102.354 589.595 -227.842 722.543 187.051 614.961C612.037 504.762 774.569 471.759 645.315 387.249C568.916 337.297 122.102 493.912 319.22 596.4C516.338 698.888 992.706 575.354 1088.54 542.267C1184.37 509.18 1191.27 391.749 792.413 518.264C372.255 651.537 -1.89137 321.216 255.633 213.886C513.158 106.556 774.086 134.219 726.822 -2.79664C702.946 -72.0113 547.049 58.9209 486.642 57.7104C426.235 56.4999 389.165 -107.701 338.75 39.9787C288.335 187.658 543.07 156.222 594.675 -14.7981" stroke="white"/>
<path opacity="0.6" d="M1189.96 243.976C1149.15 217.364 1034.43 275.91 1189.96 332.682C1296.01 371.393 1258.54 479.935 1246.73 547.351C1210.67 753.285 1069.95 437.35 1189.96 391.228C1309.97 345.107 1393.42 431.38 1399.87 369.982C1406.33 308.585 1407.97 164.294 1349.43 281.289C1290.89 398.284 1385.73 588.729 1258.54 721.194C1131.34 853.659 990.352 987.237 920.642 937.405C850.932 887.572 786.466 809.742 962.972 783.447C1139.48 757.151 1295.18 860.066 1352.41 799.137C1398.2 750.393 1470.95 602.961 1501.61 535.337" stroke="white"/>
<g opacity="0.8" filter="url(#filter0_f_2407_2682)">
<ellipse cx="634.258" cy="333.953" rx="182.428" ry="530.448" transform="rotate(60.4797 634.258 333.953)" fill="white"/>
</g>
</g>
<defs>
<filter id="filter0_f_2407_2682" x="-86.0869" y="-221.891" width="1440.69" height="1111.69" filterUnits="userSpaceOnUse" color-interpolation-filters="sRGB">
<feFlood flood-opacity="0" result="BackgroundImageFix"/>
<feBlend mode="normal" in="SourceGraphic" in2="BackgroundImageFix" result="shape"/>
<feGaussianBlur stdDeviation="125" result="effect1_foregroundBlur_2407_2682"/>
</filter>
<clipPath id="clip0_2407_2682">
<rect width="1400" height="883" fill="white"/>
</clipPath>
</defs>
</svg>
