<svg width="570" height="593" viewBox="0 0 570 593" fill="none" xmlns="http://www.w3.org/2000/svg">
<rect width="570" height="593" fill="#414042"/>
<path opacity="0.02" d="M142.5 510.422C142.5 519.122 140.5 526.622 136.5 532.922C132.5 539.122 126.75 543.872 119.25 547.172C111.65 550.472 102.7 552.122 92.4 552.122C82.1 552.122 73.2 550.472 65.7 547.172C58.1 543.872 52.3 539.122 48.3 532.922C44.2 526.622 42.15 519.122 42.15 510.422C42.15 501.722 44.2 494.222 48.3 487.922C52.3 481.622 58.1 476.822 65.7 473.522C73.2 470.122 82.1 468.422 92.4 468.422C102.7 468.422 111.65 470.122 119.25 473.522C126.75 476.822 132.5 481.622 136.5 487.922C140.5 494.222 142.5 501.722 142.5 510.422ZM135.3 510.422C135.3 500.822 131.65 493.472 124.35 488.372C117.05 483.172 106.4 480.572 92.4 480.572C78.5 480.572 67.85 483.172 60.45 488.372C53.05 493.472 49.35 500.822 49.35 510.422C49.35 519.922 53.05 527.222 60.45 532.322C67.85 537.422 78.5 539.972 92.4 539.972C106.4 539.972 117.05 537.472 124.35 532.472C131.65 527.372 135.3 520.022 135.3 510.422ZM141 436.878L50.7 436.878L50.7 464.628L43.5 464.628L43.5 397.578L50.7 397.578L50.7 425.478L141 425.478L141 436.878ZM142.5 368.337C142.5 375.537 141.4 381.337 139.2 385.737C136.9 390.137 134.5 393.287 132 395.187C129.4 397.087 127.8 398.037 127.2 398.037L121.95 393.837C122.35 393.837 123.7 392.987 126 391.287C128.2 389.487 130.3 386.787 132.3 383.187C134.2 379.587 135.15 375.037 135.15 369.537C135.15 362.737 133.3 357.487 129.6 353.787C125.9 349.987 120.6 348.087 113.7 348.087C100.8 348.087 94.35 354.387 94.35 366.987L94.95 380.937L87.75 380.937L88.35 366.237C88.25 363.837 87.4 361.437 85.8 359.037C84.2 356.637 81.85 354.637 78.75 353.037C75.65 351.437 71.95 350.637 67.65 350.637C55.35 350.637 49.2 356.737 49.2 368.937C49.2 372.337 49.75 375.587 50.85 378.687C51.85 381.787 53 384.437 54.3 386.637C55.5 388.737 56.15 389.787 56.25 389.787L49.8 391.137C49.7 391.137 49 389.937 47.7 387.537C46.3 385.137 45.05 382.137 43.95 378.537C42.75 374.937 42.15 371.137 42.15 367.137C42.15 357.937 44.35 350.937 48.75 346.137C53.15 341.337 59.15 338.937 66.75 338.937C72.45 338.937 77.3 340.487 81.3 343.587C85.3 346.587 88.4 350.287 90.6 354.687C91.9 348.687 94.45 344.037 98.25 340.737C102.05 337.337 107.3 335.637 114 335.637C119.6 335.637 124.55 336.987 128.85 339.687C133.15 342.287 136.5 346.087 138.9 351.087C141.3 355.987 142.5 361.737 142.5 368.337ZM43.5 318.927L43.5 307.527L82.8 307.527L82.8 295.977C82.8 284.577 85.15 275.777 89.85 269.577C94.55 263.277 101.55 260.127 110.85 260.127C120.45 260.127 127.9 263.127 133.2 269.127C138.4 275.027 141 283.777 141 295.377L141 318.927L43.5 318.927ZM141 244.977L43.5 244.977L43.5 233.577L141 233.577L141 244.977ZM134.4 295.677C134.4 287.577 132.5 281.577 128.7 277.677C124.8 273.677 118.95 271.677 111.15 271.677C103.55 271.677 98 273.777 94.5 277.977C90.9 282.077 89.1 288.077 89.1 295.977L89.1 307.527L134.4 307.527L134.4 295.677ZM43.5 209.902L43.5 185.302C43.5 175.502 45.75 167.952 50.25 162.652C54.65 157.252 60.5 154.552 67.8 154.552C73.2 154.552 77.7 155.902 81.3 158.602C84.9 161.302 87.75 164.652 89.85 168.652C91.45 162.852 94.25 158.302 98.25 155.002C102.25 151.602 107.3 149.902 113.4 149.902C122.2 149.902 129 152.852 133.8 158.752C138.6 164.552 141 173.352 141 185.152L141 209.902L43.5 209.902ZM87.6 180.802C87.6 178.702 87 176.502 85.8 174.202C84.6 171.802 82.6 169.752 79.8 168.052C76.9 166.352 73.15 165.502 68.55 165.502C62.45 165.502 57.85 167.352 54.75 171.052C51.65 174.752 50.1 179.652 50.1 185.752L50.1 198.502L87.6 198.502L87.6 180.802ZM134.4 185.602C134.4 169.302 127.25 161.152 112.95 161.152C106.55 161.152 101.75 162.902 98.55 166.402C95.35 169.902 93.75 174.502 93.75 180.202L93.75 198.502L134.4 198.502L134.4 185.602ZM43.5 133.103L43.5 121.703L82.8 121.703L82.8 110.153C82.8 98.7531 85.15 89.9531 89.85 83.7531C94.55 77.4531 101.55 74.3031 110.85 74.3031C120.45 74.3031 127.9 77.3031 133.2 83.3031C138.4 89.2031 141 97.9531 141 109.553L141 133.103L43.5 133.103ZM141 59.1531L43.5 59.1531L43.5 47.7531L141 47.7531L141 59.1531ZM134.4 109.853C134.4 101.753 132.5 95.7531 128.7 91.8531C124.8 87.8531 118.95 85.8531 111.15 85.8531C103.55 85.8531 98 87.9531 94.5 92.1531C90.9 96.2531 89.1 102.253 89.1 110.153L89.1 121.703L134.4 121.703L134.4 109.853Z" fill="white"/>
<path opacity="0.05" d="M329.317 593C314.673 593 302.575 590.103 293.024 584.31C283.473 578.517 275.514 570.793 269.147 561.138C262.779 550.839 258.004 539.253 254.82 526.379C252.273 513.506 251 501.92 251 491.621C251 460.08 258.959 431.115 274.877 404.724C291.432 378.333 316.583 357.092 350.329 341L358.925 358.379C339.823 366.747 323.268 379.621 309.26 397C295.252 414.379 287.612 432.08 286.338 450.103C285.065 459.759 285.702 468.77 288.249 477.138C299.71 466.195 313.718 460.724 330.272 460.724C348.738 460.724 364.337 466.839 377.072 479.069C389.806 490.655 396.174 506.747 396.174 527.345C396.174 546.655 389.488 562.425 376.117 574.655C363.382 586.885 347.782 593 329.317 593ZM503.144 593C488.499 593 476.401 590.103 466.85 584.31C457.299 578.517 449.34 570.793 442.973 561.138C436.606 550.839 431.83 539.253 428.647 526.379C426.1 513.506 424.826 501.92 424.826 491.621C424.826 460.08 432.785 431.115 448.704 404.724C465.258 378.333 490.409 357.092 524.156 341L532.751 358.379C513.65 366.747 497.095 379.621 483.087 397C469.079 414.379 461.438 432.08 460.165 450.103C458.891 459.759 459.528 468.77 462.075 477.138C473.536 466.195 487.544 460.724 504.099 460.724C522.564 460.724 538.164 466.839 550.898 479.069C563.633 490.655 570 506.747 570 527.345C570 546.655 563.314 562.425 549.943 574.655C537.209 586.885 521.609 593 503.144 593Z" fill="white"/>
</svg>
