<svg width="43" height="34" viewBox="0 0 43 34" fill="none" xmlns="http://www.w3.org/2000/svg">
<path d="M10.5569 34C8.58283 34 6.9521 33.6092 5.66467 32.8276C4.37725 32.046 3.30439 31.0038 2.44611 29.7011C1.58782 28.3116 0.944112 26.7484 0.51497 25.0115C0.171657 23.2746 0 21.7114 0 20.3218C0 16.0664 1.07285 12.1584 3.21856 8.5977C5.4501 5.03703 8.84032 2.17113 13.3892 0L14.5479 2.34483C11.9731 3.47382 9.74152 5.21073 7.85329 7.55556C5.96507 9.90038 4.93513 12.2886 4.76347 14.7203C4.59182 16.023 4.67764 17.2388 5.02096 18.3678C6.56587 16.8914 8.45409 16.1533 10.6856 16.1533C13.1747 16.1533 15.2774 16.9783 16.994 18.6284C18.7106 20.1916 19.5689 22.3627 19.5689 25.1418C19.5689 27.7471 18.6677 29.8748 16.8653 31.5249C15.1487 33.175 13.0459 34 10.5569 34ZM33.988 34C32.014 34 30.3832 33.6092 29.0958 32.8276C27.8084 32.046 26.7355 31.0038 25.8772 29.7011C25.019 28.3116 24.3752 26.7484 23.9461 25.0115C23.6028 23.2746 23.4311 21.7114 23.4311 20.3218C23.4311 16.0664 24.504 12.1584 26.6497 8.5977C28.8812 5.03703 32.2715 2.17113 36.8204 0L37.979 2.34483C35.4042 3.47382 33.1727 5.21073 31.2844 7.55556C29.3962 9.90038 28.3663 12.2886 28.1946 14.7203C28.023 16.023 28.1088 17.2388 28.4521 18.3678C29.997 16.8914 31.8852 16.1533 34.1168 16.1533C36.6058 16.1533 38.7086 16.9783 40.4251 18.6284C42.1417 20.1916 43 22.3627 43 25.1418C43 27.7471 42.0988 29.8748 40.2964 31.5249C38.5798 33.175 36.477 34 33.988 34Z" fill="#6CBEBE"/>
</svg>
